<svg xmlns="http://www.w3.org/2000/svg" version="1.1" xmlns:xlink="http://www.w3.org/1999/xlink" xmlns:svgjs="http://svgjs.dev/svgjs" width="2000" height="207" viewBox="0 0 2000 207"><g transform="matrix(1,0,0,1,-1.2121212121212466,-0.5137744062460712)"><svg viewBox="0 0 396 41" data-background-color="#ffffff" preserveAspectRatio="xMidYMid meet" height="207" width="2000" xmlns="http://www.w3.org/2000/svg" xmlns:xlink="http://www.w3.org/1999/xlink"><g id="tight-bounds" transform="matrix(1,0,0,1,0.2400000000000091,0.10176208046419788)"><svg viewBox="0 0 395.52 40.79647583907163" height="40.79647583907163" width="395.52"><g><svg viewBox="0 0 468.4585663625112 48.31982854018589" height="40.79647583907163" width="395.52"><g><rect width="4.335852740116435" height="48.31982854018589" x="57.252313779158015" y="0" fill="#4fa92d" opacity="1" stroke-width="0" stroke="transparent" fill-opacity="1" class="rect-yte-0" data-fill-palette-color="primary" rx="1%" id="yte-0" data-palette-color="#4fa92d"></rect></g><g transform="matrix(1,0,0,1,72.9385663625112,0.12019857845817228)"><svg viewBox="0 0 395.52 48.079431383269544" height="48.079431383269544" width="395.52"><g id="textblocktransform"><svg viewBox="0 0 395.52 48.079431383269544" height="48.079431383269544" width="395.52" id="textblock"><g><svg viewBox="0 0 395.52 48.079431383269544" height="48.079431383269544" width="395.52"><g transform="matrix(1,0,0,1,0,0)"><svg width="395.52" viewBox="2.39 -32.03 267.90000000000003 32.57" height="48.079431383269544" data-palette-color="#4fa92d"><g class="wordmark-text-0" data-fill-palette-color="primary" id="text-0"><path d="M26-28.98Q26.86-28.98 27.22-28.61 27.59-28.25 27.59-27.39L27.59-27.39 27.59-17.09Q27.59-16.28 26.92-15.92 26.25-15.55 24.85-15.55L24.85-15.55Q23.51-15.55 22.99-15.91 22.46-16.26 22.46-17.09L22.46-17.09 22.46-23.73 18.04-23.73 18.04-5 23.32-5Q23.9-5 24.22-4.8 24.54-4.59 24.69-4.05 24.85-3.52 24.85-2.49L24.85-2.49Q24.85-1.46 24.69-0.93 24.54-0.39 24.22-0.2 23.9 0 23.32 0L23.32 0 6.67 0Q6.08 0 5.76-0.2 5.44-0.39 5.29-0.93 5.13-1.46 5.13-2.49L5.13-2.49Q5.13-3.52 5.29-4.05 5.44-4.59 5.76-4.8 6.08-5 6.67-5L6.67-5 11.94-5 11.94-23.73 7.52-23.73 7.52-17.09Q7.52-16.28 6.85-15.92 6.18-15.55 4.79-15.55L4.79-15.55Q3.44-15.55 2.92-15.91 2.39-16.26 2.39-17.09L2.39-17.09 2.39-27.39Q2.39-28.25 2.77-28.61 3.15-28.98 3.98-28.98L3.98-28.98 26-28.98ZM52.61-23.1Q54.69-23.1 56.52-21.73L56.52-21.73Q57.59-20.95 57.59-19.68L57.59-19.68Q57.59-18.87 57.15-17.77L57.15-17.77Q56.71-16.67 56.16-16.11 55.61-15.55 55-15.55L55-15.55Q54.66-15.55 54.27-15.75L54.27-15.75Q52.9-16.5 51.44-16.5L51.44-16.5Q49.56-16.5 47.92-15.31 46.29-14.11 45.3-12.01 44.31-9.91 44.31-7.32L44.31-7.32 44.31-5 51.32-5Q51.9-5 52.22-4.8 52.54-4.59 52.7-4.05 52.85-3.52 52.85-2.49L52.85-2.49Q52.85-1.46 52.7-0.93 52.54-0.39 52.22-0.2 51.9 0 51.32 0L51.32 0 34.62 0Q34.03 0 33.71-0.2 33.4-0.39 33.24-0.93 33.08-1.46 33.08-2.49L33.08-2.49Q33.08-3.52 33.24-4.05 33.4-4.59 33.71-4.8 34.03-5 34.62-5L34.62-5 38.21-5 38.21-17.55 35.35-17.55Q34.76-17.55 34.45-17.75 34.13-17.94 33.97-18.48 33.81-19.02 33.81-20.04L33.81-20.04Q33.81-21.07 33.97-21.61 34.13-22.14 34.45-22.35 34.76-22.56 35.35-22.56L35.35-22.56 42.04-22.56Q42.87-22.56 43.22-22.2 43.58-21.85 43.58-21.02L43.58-21.02 43.58-15.72Q45.41-19.26 47.79-21.18 50.17-23.1 52.61-23.1L52.61-23.1ZM74.68-23.1Q80.05-23.1 82.44-20.78 84.83-18.46 84.83-14.14L84.83-14.14 84.83-7.08Q84.83-6.1 85.25-5.55 85.66-5 86.45-5L86.45-5 87.2-5Q87.79-5 88.11-4.8 88.42-4.59 88.58-4.05 88.74-3.52 88.74-2.49L88.74-2.49Q88.74-1.46 88.58-0.93 88.42-0.39 88.11-0.2 87.79 0 87.2 0L87.2 0 84.47 0Q82.95 0 81.79-0.62 80.63-1.25 80.02-2.59L80.02-2.59Q78.1-1.1 75.95-0.28 73.8 0.54 71.53 0.54L71.53 0.54Q68.77 0.54 66.77-0.4 64.77-1.34 63.7-3.09 62.64-4.83 62.64-7.2L62.64-7.2Q62.64-10.62 65.06-12.5 67.48-14.38 71.82-14.38L71.82-14.38Q75.07-14.38 78.73-13.65L78.73-13.65 78.73-14.36Q78.73-15.99 77.7-16.77 76.68-17.55 74.09-17.55L74.09-17.55Q72.65-17.55 70.88-17.2 69.11-16.85 67.38-16.26L67.38-16.26Q66.96-16.14 66.67-16.14L66.67-16.14Q66.06-16.14 65.58-16.59 65.11-17.04 64.72-18.12L64.72-18.12Q64.35-19.19 64.35-19.87L64.35-19.87Q64.35-21.12 65.47-21.53L65.47-21.53Q67.65-22.31 70.09-22.71 72.53-23.1 74.68-23.1L74.68-23.1ZM72.43-9.35Q70.72-9.35 69.83-8.74 68.94-8.13 68.94-6.96L68.94-6.96Q68.94-5.81 69.81-5.21 70.67-4.61 72.31-4.61L72.31-4.61Q73.99-4.61 75.64-5.29 77.29-5.96 78.73-7.13L78.73-7.13 78.73-8.69Q75.51-9.35 72.43-9.35L72.43-9.35ZM117.4-22.56Q117.99-22.56 118.3-22.35 118.62-22.14 118.78-21.61 118.94-21.07 118.94-20.04L118.94-20.04Q118.94-19.02 118.78-18.48 118.62-17.94 118.3-17.75 117.99-17.55 117.4-17.55L117.4-17.55 115.74-17.55 108.59-1.05Q108.22-0.2 107.39 0.17 106.56 0.54 104.85 0.54L104.85 0.54Q103.14 0.54 102.34 0.17 101.53-0.2 101.16-1.05L101.16-1.05 94.06-17.55 92.45-17.55Q91.86-17.55 91.55-17.75 91.23-17.94 91.07-18.48 90.91-19.02 90.91-20.04L90.91-20.04Q90.91-21.07 91.07-21.61 91.23-22.14 91.55-22.35 91.86-22.56 92.45-22.56L92.45-22.56 102.31-22.56Q102.9-22.56 103.22-22.35 103.53-22.14 103.69-21.61 103.85-21.07 103.85-20.04L103.85-20.04Q103.85-19.02 103.69-18.48 103.53-17.94 103.22-17.75 102.9-17.55 102.31-17.55L102.31-17.55 100.68-17.55 105-6.79 109.37-17.55 108.02-17.55Q107.44-17.55 107.12-17.75 106.8-17.94 106.65-18.48 106.49-19.02 106.49-20.04L106.49-20.04Q106.49-21.07 106.65-21.61 106.8-22.14 107.12-22.35 107.44-22.56 108.02-22.56L108.02-22.56 117.4-22.56ZM135.24-23.1Q138.95-23.1 141.57-21.5 144.18-19.9 145.51-17.05 146.84-14.21 146.84-10.55L146.84-10.55Q146.84-9.72 146.49-9.38 146.13-9.03 145.3-9.03L145.3-9.03 129.63-9.03Q130.09-7.08 131.62-6.04 133.14-5 135.49-5L135.49-5Q139.27-5 143.69-6.35L143.69-6.35Q143.98-6.45 144.28-6.45L144.28-6.45Q144.81-6.45 145.2-5.96 145.6-5.47 145.91-4.3L145.91-4.3Q146.16-3.39 146.16-2.76L146.16-2.76Q146.16-2.12 145.88-1.77 145.6-1.42 144.96-1.2L144.96-1.2Q142.52-0.39 139.98 0.07 137.44 0.54 135 0.54L135 0.54Q131.29 0.54 128.6-0.98 125.92-2.49 124.51-5.16 123.11-7.84 123.11-11.28L123.11-11.28Q123.11-14.7 124.57-17.38 126.04-20.07 128.8-21.58 131.56-23.1 135.24-23.1L135.24-23.1ZM135.24-17.55Q130.78-17.55 129.73-13.79L129.73-13.79 140.47-13.79Q140.05-15.58 138.7-16.56 137.34-17.55 135.24-17.55L135.24-17.55ZM166.49-32.03Q167.32-32.03 167.68-31.68 168.03-31.32 168.03-30.49L168.03-30.49 168.03-5 174.89-5Q175.48-5 175.79-4.8 176.11-4.59 176.27-4.05 176.43-3.52 176.43-2.49L176.43-2.49Q176.43-1.46 176.27-0.93 176.11-0.39 175.79-0.2 175.48 0 174.89 0L174.89 0 155.26 0Q154.68 0 154.36-0.2 154.04-0.39 153.88-0.93 153.72-1.46 153.72-2.49L153.72-2.49Q153.72-3.52 153.88-4.05 154.04-4.59 154.36-4.8 154.68-5 155.26-5L155.26-5 161.93-5 161.93-27.03 156.24-27.03Q155.65-27.03 155.33-27.22 155.02-27.42 154.86-27.95 154.7-28.49 154.7-29.52L154.7-29.52Q154.7-30.54 154.86-31.08 155.02-31.62 155.33-31.82 155.65-32.03 156.24-32.03L156.24-32.03 166.49-32.03ZM207.58-28.98Q208.16-28.98 208.48-28.77 208.8-28.56 208.96-28.03 209.12-27.49 209.12-26.46L209.12-26.46Q209.12-25.44 208.96-24.9 208.8-24.37 208.48-24.17 208.16-23.97 207.58-23.97L207.58-23.97 206.19-23.97 206.19-1.07Q206.19-0.27 205.58 0.13 204.97 0.54 203.5 0.54L203.5 0.54Q202.38 0.54 201.83 0.23 201.28-0.07 200.86-0.76L200.86-0.76 189.88-18.95 189.78-18.95 189.78-5 192.49-5Q193.08-5 193.39-4.8 193.71-4.59 193.87-4.05 194.03-3.52 194.03-2.49L194.03-2.49Q194.03-1.46 193.87-0.93 193.71-0.39 193.39-0.2 193.08 0 192.49 0L192.49 0 182.63 0Q182.04 0 181.72-0.2 181.41-0.39 181.25-0.93 181.09-1.46 181.09-2.49L181.09-2.49Q181.09-3.52 181.25-4.05 181.41-4.59 181.72-4.8 182.04-5 182.63-5L182.63-5 184.26-5 184.26-23.97 182.63-23.97Q182.04-23.97 181.72-24.17 181.41-24.37 181.25-24.9 181.09-25.44 181.09-26.46L181.09-26.46Q181.09-27.49 181.25-28.03 181.41-28.56 181.72-28.77 182.04-28.98 182.63-28.98L182.63-28.98 189.07-28.98Q190.05-28.98 190.44-28.32L190.44-28.32 200.57-11.55 200.67-11.55 200.67-23.97 198.42-23.97Q197.84-23.97 197.52-24.17 197.2-24.37 197.04-24.9 196.88-25.44 196.88-26.46L196.88-26.46Q196.88-27.49 197.04-28.03 197.2-28.56 197.52-28.77 197.84-28.98 198.42-28.98L198.42-28.98 207.58-28.98ZM224.84-23.1Q228.55-23.1 231.33-21.58 234.11-20.07 235.61-17.38 237.12-14.7 237.12-11.28L237.12-11.28Q237.12-7.86 235.61-5.18 234.11-2.49 231.33-0.98 228.55 0.54 224.84 0.54L224.84 0.54Q221.13 0.54 218.34-0.98 215.56-2.49 214.06-5.18 212.56-7.86 212.56-11.28L212.56-11.28Q212.56-14.7 214.06-17.38 215.56-20.07 218.34-21.58 221.13-23.1 224.84-23.1L224.84-23.1ZM224.84-17.55Q223.08-17.55 221.78-16.78 220.49-16.02 219.79-14.6 219.1-13.18 219.1-11.28L219.1-11.28Q219.1-9.38 219.79-7.96 220.49-6.54 221.78-5.77 223.08-5 224.84-5L224.84-5Q226.59-5 227.89-5.77 229.18-6.54 229.88-7.96 230.57-9.38 230.57-11.28L230.57-11.28Q230.57-13.18 229.88-14.6 229.18-16.02 227.89-16.78 226.59-17.55 224.84-17.55L224.84-17.55ZM268.75-22.56Q269.34-22.56 269.66-22.35 269.98-22.14 270.13-21.61 270.29-21.07 270.29-20.04L270.29-20.04Q270.29-19.02 270.13-18.48 269.98-17.94 269.66-17.75 269.34-17.55 268.75-17.55L268.75-17.55 267.75-17.55 264.19-1.05Q263.99-0.17 263.35 0.18 262.7 0.54 261.23 0.54L261.23 0.54Q259.82 0.54 259.14 0.17 258.45-0.2 258.13-1.05L258.13-1.05 254.72-9.72 251.25-1.05Q250.91-0.2 250.22 0.17 249.54 0.54 248.1 0.54L248.1 0.54Q246.64 0.54 246.01 0.18 245.39-0.17 245.19-1.05L245.19-1.05 241.7-17.55 240.87-17.55Q240.29-17.55 239.97-17.75 239.65-17.94 239.49-18.48 239.34-19.02 239.34-20.04L239.34-20.04Q239.34-21.07 239.49-21.61 239.65-22.14 239.97-22.35 240.29-22.56 240.87-22.56L240.87-22.56 249.27-22.56Q249.86-22.56 250.18-22.35 250.49-22.14 250.65-21.61 250.81-21.07 250.81-20.04L250.81-20.04Q250.81-19.02 250.65-18.48 250.49-17.94 250.18-17.75 249.86-17.55 249.27-17.55L249.27-17.55 247.2-17.55 249.03-8.08 252.4-16.36Q252.67-17.04 253.2-17.4 253.74-17.75 254.74-17.75L254.74-17.75Q255.79-17.75 256.32-17.46 256.84-17.16 257.11-16.53L257.11-16.53 260.45-8.08 262.36-17.55 260.6-17.55Q260.01-17.55 259.7-17.75 259.38-17.94 259.22-18.48 259.06-19.02 259.06-20.04L259.06-20.04Q259.06-21.07 259.22-21.61 259.38-22.14 259.7-22.35 260.01-22.56 260.6-22.56L260.6-22.56 268.75-22.56Z" fill="#4fa92d" data-fill-palette-color="primary"></path></g></svg></g></svg></g></svg></g></svg></g><g transform="matrix(1,0,0,1,0,0.12019857845817228)"><svg viewBox="0 0 45.90191393592127 48.079431383269544" height="48.079431383269544" width="45.90191393592127"><g><svg xmlns="http://www.w3.org/2000/svg" xml:space="preserve" version="1.0" viewBox="0 0 95.471 100" id="icon-0" width="45.90191393592127" height="48.079431383269544" x="0" y="0" class="icon-icon-0" data-fill-palette-color="accent"><path d="M47.735 0c-0.083 2.825-1.738 13.412-19.799 30.934C10.554 47.797 2.439 49.824 0 50c2.439 0.178 10.554 2.204 27.936 19.066C45.997 86.589 47.652 97.177 47.735 100c0.083-2.823 1.739-13.411 19.798-30.934C84.917 52.204 93.031 50.178 95.471 50c-2.439-0.176-10.554-2.203-27.938-19.066C49.475 13.412 47.819 2.825 47.735 0" fill="#2cad3c" data-fill-palette-color="accent"></path></svg></g></svg></g></svg></g><defs></defs></svg><rect width="395.52" height="40.79647583907163" fill="none" stroke="none" visibility="hidden"></rect></g></svg></g></svg>